<?xml version="1.0" encoding="utf-8"?>
<svg version="1.1" id="logo" xmlns="http://www.w3.org/2000/svg" xmlns:xlink="http://www.w3.org/1999/xlink" x="0px" y="0px"
	 viewBox="0 0 1000 1000" xml:space="preserve">
<path id="circle" fill="white" d="M500,0c-95.553,0-184.842,26.81-260.766,73.309L575.19,473.685L817.526,184.88
	C897.778,265.741,947.368,377.075,947.368,500c0,139.122-63.507,263.409-163.11,345.46V478.286L575.19,727.444L115.818,179.987
	C43.51,266.7,0,378.267,0,500c0,109.943,35.486,211.597,95.627,294.136l69.787-40.291c23.263-13.431,37.594-38.253,37.594-65.115
	l0-299.632l163.109,194.386l0,134.303c0,67.155-35.827,129.209-93.985,162.786l-55.01,31.76C297.569,967.63,395.003,1000,500,1000
	c276.142,0,500-223.858,500-500S776.142,0,500,0z"/>
</svg>
